<mxfile host="app.diagrams.net" modified="2020-11-23T00:24:12.733Z" agent="5.0 (Windows NT 10.0; Win64; x64) AppleWebKit/537.36 (KHTML, like Gecko) Chrome/87.0.4280.66 Safari/537.36" etag="hubbssg8yqtxL0dIsE--" version="13.10.1" type="github">
  <diagram name="Page-1" id="9f46799a-70d6-7492-0946-bef42562c5a5">
    <mxGraphModel dx="1422" dy="762" grid="1" gridSize="10" guides="1" tooltips="1" connect="1" arrows="1" fold="1" page="1" pageScale="1" pageWidth="1100" pageHeight="850" background="#ffffff" math="0" shadow="0">
      <root>
        <mxCell id="0" />
        <mxCell id="1" parent="0" />
        <mxCell id="CwuzTmD7EpdxKROHSarw-15" value="" style="group" vertex="1" connectable="0" parent="1">
          <mxGeometry x="410" y="20" width="190" height="270" as="geometry" />
        </mxCell>
        <mxCell id="CwuzTmD7EpdxKROHSarw-2" value="" style="rounded=0;whiteSpace=wrap;html=1;" vertex="1" parent="CwuzTmD7EpdxKROHSarw-15">
          <mxGeometry width="190" height="270" as="geometry" />
        </mxCell>
        <mxCell id="CwuzTmD7EpdxKROHSarw-5" value="" style="whiteSpace=wrap;html=1;aspect=fixed;" vertex="1" parent="CwuzTmD7EpdxKROHSarw-15">
          <mxGeometry x="55" y="25" width="80" height="80" as="geometry" />
        </mxCell>
        <mxCell id="CwuzTmD7EpdxKROHSarw-6" value="Logo" style="text;html=1;strokeColor=none;fillColor=none;align=center;verticalAlign=middle;whiteSpace=wrap;rounded=0;" vertex="1" parent="CwuzTmD7EpdxKROHSarw-15">
          <mxGeometry x="75" y="55" width="40" height="20" as="geometry" />
        </mxCell>
        <mxCell id="CwuzTmD7EpdxKROHSarw-9" value="Joke Api" style="text;html=1;strokeColor=none;fillColor=none;align=center;verticalAlign=middle;whiteSpace=wrap;rounded=0;" vertex="1" parent="CwuzTmD7EpdxKROHSarw-15">
          <mxGeometry x="62.5" y="125" width="65" height="20" as="geometry" />
        </mxCell>
        <mxCell id="CwuzTmD7EpdxKROHSarw-11" value="" style="rounded=1;whiteSpace=wrap;html=1;" vertex="1" parent="CwuzTmD7EpdxKROHSarw-15">
          <mxGeometry x="50" y="205" width="90" height="30" as="geometry" />
        </mxCell>
        <mxCell id="CwuzTmD7EpdxKROHSarw-12" value="" style="rounded=1;whiteSpace=wrap;html=1;" vertex="1" parent="CwuzTmD7EpdxKROHSarw-15">
          <mxGeometry x="50" y="165" width="90" height="30" as="geometry" />
        </mxCell>
        <mxCell id="CwuzTmD7EpdxKROHSarw-13" value="&#xa;&#xa;&lt;span class=&quot;TextRun  BCX9 SCXW108028720&quot; lang=&quot;EN-GB&quot; style=&quot;margin: 0px; padding: 0px; color: rgb(0, 0, 0); font-size: 11pt; font-style: normal; font-weight: 400; letter-spacing: normal; text-align: left; text-indent: 0px; text-transform: none; word-spacing: 0px; background-color: rgb(255, 255, 255); font-family: &amp;quot;calibri light&amp;quot;, &amp;quot;calibri light_embeddedfont&amp;quot;, &amp;quot;calibri light_msfontservice&amp;quot;, sans-serif; line-height: 19.425px;&quot;&gt;&lt;span class=&quot;NormalTextRun  BCX9 SCXW108028720&quot; style=&quot;margin: 0px ; padding: 0px ; background-color: inherit&quot;&gt;Food&lt;span&gt;&amp;nbsp;&lt;/span&gt;&lt;/span&gt;&lt;/span&gt;&lt;span class=&quot;TextRun  BCX9 SCXW108028720&quot; lang=&quot;EN-GB&quot; style=&quot;margin: 0px; padding: 0px; color: rgb(0, 0, 0); font-size: 11pt; font-style: normal; font-weight: 400; letter-spacing: normal; text-align: left; text-indent: 0px; text-transform: none; word-spacing: 0px; background-color: rgb(255, 255, 255); font-family: &amp;quot;calibri light&amp;quot;, &amp;quot;calibri light_embeddedfont&amp;quot;, &amp;quot;calibri light_msfontservice&amp;quot;, sans-serif; line-height: 19.425px;&quot;&gt;&lt;span class=&quot;NormalTextRun  BCX9 SCXW108028720&quot; style=&quot;margin: 0px ; padding: 0px ; background-color: inherit&quot;&gt;M&lt;/span&gt;&lt;/span&gt;&lt;span class=&quot;TextRun  BCX9 SCXW108028720&quot; lang=&quot;EN-GB&quot; style=&quot;margin: 0px; padding: 0px; color: rgb(0, 0, 0); font-size: 11pt; font-style: normal; font-weight: 400; letter-spacing: normal; text-align: left; text-indent: 0px; text-transform: none; word-spacing: 0px; background-color: rgb(255, 255, 255); font-family: &amp;quot;calibri light&amp;quot;, &amp;quot;calibri light_embeddedfont&amp;quot;, &amp;quot;calibri light_msfontservice&amp;quot;, sans-serif; line-height: 19.425px;&quot;&gt;&lt;span class=&quot;NormalTextRun  BCX9 SCXW108028720&quot; style=&quot;margin: 0px ; padding: 0px ; background-color: inherit&quot;&gt;enu&lt;/span&gt;&lt;/span&gt;&#xa;&#xa;" style="text;html=1;strokeColor=none;fillColor=none;align=center;verticalAlign=middle;whiteSpace=wrap;rounded=0;" vertex="1" parent="CwuzTmD7EpdxKROHSarw-15">
          <mxGeometry x="57.5" y="170" width="75" height="20" as="geometry" />
        </mxCell>
        <mxCell id="CwuzTmD7EpdxKROHSarw-14" value="&#xa;&#xa;&lt;span class=&quot;TextRun  BCX9 SCXW184529479&quot; lang=&quot;EN-GB&quot; style=&quot;margin: 0px; padding: 0px; color: rgb(0, 0, 0); font-size: 11pt; font-style: normal; font-weight: 400; letter-spacing: normal; text-align: left; text-indent: 0px; text-transform: none; word-spacing: 0px; background-color: rgb(255, 255, 255); font-family: &amp;quot;calibri light&amp;quot;, &amp;quot;calibri light_embeddedfont&amp;quot;, &amp;quot;calibri light_msfontservice&amp;quot;, sans-serif; line-height: 19.425px;&quot;&gt;&lt;span class=&quot;NormalTextRun  BCX9 SCXW184529479&quot; style=&quot;margin: 0px ; padding: 0px ; background-color: inherit&quot;&gt;Drinks&lt;span&gt;&amp;nbsp;&lt;/span&gt;&lt;/span&gt;&lt;/span&gt;&lt;span class=&quot;TextRun  BCX9 SCXW184529479&quot; lang=&quot;EN-GB&quot; style=&quot;margin: 0px; padding: 0px; color: rgb(0, 0, 0); font-size: 11pt; font-style: normal; font-weight: 400; letter-spacing: normal; text-align: left; text-indent: 0px; text-transform: none; word-spacing: 0px; background-color: rgb(255, 255, 255); font-family: &amp;quot;calibri light&amp;quot;, &amp;quot;calibri light_embeddedfont&amp;quot;, &amp;quot;calibri light_msfontservice&amp;quot;, sans-serif; line-height: 19.425px;&quot;&gt;&lt;span class=&quot;NormalTextRun  BCX9 SCXW184529479&quot; style=&quot;margin: 0px ; padding: 0px ; background-color: inherit&quot;&gt;M&lt;/span&gt;&lt;/span&gt;&lt;span class=&quot;TextRun  BCX9 SCXW184529479&quot; lang=&quot;EN-GB&quot; style=&quot;margin: 0px; padding: 0px; color: rgb(0, 0, 0); font-size: 11pt; font-style: normal; font-weight: 400; letter-spacing: normal; text-align: left; text-indent: 0px; text-transform: none; word-spacing: 0px; background-color: rgb(255, 255, 255); font-family: &amp;quot;calibri light&amp;quot;, &amp;quot;calibri light_embeddedfont&amp;quot;, &amp;quot;calibri light_msfontservice&amp;quot;, sans-serif; line-height: 19.425px;&quot;&gt;&lt;span class=&quot;NormalTextRun  BCX9 SCXW184529479&quot; style=&quot;margin: 0px ; padding: 0px ; background-color: inherit&quot;&gt;enu&lt;/span&gt;&lt;/span&gt;&#xa;&#xa;" style="text;html=1;strokeColor=none;fillColor=none;align=center;verticalAlign=middle;whiteSpace=wrap;rounded=0;" vertex="1" parent="CwuzTmD7EpdxKROHSarw-15">
          <mxGeometry x="57.5" y="210" width="75" height="20" as="geometry" />
        </mxCell>
        <mxCell id="CwuzTmD7EpdxKROHSarw-22" value="" style="group" vertex="1" connectable="0" parent="1">
          <mxGeometry x="110" y="20" width="210" height="270" as="geometry" />
        </mxCell>
        <mxCell id="CwuzTmD7EpdxKROHSarw-56" value="" style="group" vertex="1" connectable="0" parent="CwuzTmD7EpdxKROHSarw-22">
          <mxGeometry width="190" height="270" as="geometry" />
        </mxCell>
        <mxCell id="CwuzTmD7EpdxKROHSarw-4" value="" style="rounded=0;whiteSpace=wrap;html=1;" vertex="1" parent="CwuzTmD7EpdxKROHSarw-56">
          <mxGeometry width="190" height="270" as="geometry" />
        </mxCell>
        <mxCell id="CwuzTmD7EpdxKROHSarw-17" value="" style="rounded=0;whiteSpace=wrap;html=1;" vertex="1" parent="CwuzTmD7EpdxKROHSarw-56">
          <mxGeometry x="170" width="20" height="270" as="geometry" />
        </mxCell>
        <mxCell id="CwuzTmD7EpdxKROHSarw-18" value="" style="triangle;whiteSpace=wrap;html=1;rotation=90;" vertex="1" parent="CwuzTmD7EpdxKROHSarw-56">
          <mxGeometry x="170" y="250" width="20" height="20" as="geometry" />
        </mxCell>
        <mxCell id="CwuzTmD7EpdxKROHSarw-21" value="" style="triangle;whiteSpace=wrap;html=1;rotation=-90;" vertex="1" parent="CwuzTmD7EpdxKROHSarw-56">
          <mxGeometry x="170" width="20" height="20" as="geometry" />
        </mxCell>
        <mxCell id="CwuzTmD7EpdxKROHSarw-28" value="&lt;h1 style=&quot;font-size: 11px;&quot;&gt;Heading&lt;/h1&gt;&lt;p style=&quot;font-size: 11px;&quot;&gt;Lorem ipsum dolor sit amet, consectetur adipisicing elit, sed do eiusmod tempor incididunt ut labore et dolore magna aliqua.&lt;/p&gt;" style="text;html=1;strokeColor=none;fillColor=none;spacing=5;spacingTop=-20;whiteSpace=wrap;overflow=hidden;rounded=0;fontSize=11;" vertex="1" parent="CwuzTmD7EpdxKROHSarw-56">
          <mxGeometry x="12.5" y="40" width="150" height="75" as="geometry" />
        </mxCell>
        <mxCell id="CwuzTmD7EpdxKROHSarw-29" value="&#xa;&#xa;&lt;span class=&quot;TextRun  BCX9 SCXW108028720&quot; lang=&quot;EN-GB&quot; style=&quot;margin: 0px; padding: 0px; color: rgb(0, 0, 0); font-size: 11pt; font-style: normal; font-weight: 400; letter-spacing: normal; text-align: left; text-indent: 0px; text-transform: none; word-spacing: 0px; background-color: rgb(255, 255, 255); font-family: &amp;quot;calibri light&amp;quot;, &amp;quot;calibri light_embeddedfont&amp;quot;, &amp;quot;calibri light_msfontservice&amp;quot;, sans-serif; line-height: 19.425px;&quot;&gt;&lt;span class=&quot;NormalTextRun  BCX9 SCXW108028720&quot; style=&quot;margin: 0px ; padding: 0px ; background-color: inherit&quot;&gt;Food&lt;span&gt;&amp;nbsp;&lt;/span&gt;&lt;/span&gt;&lt;/span&gt;&lt;span class=&quot;TextRun  BCX9 SCXW108028720&quot; lang=&quot;EN-GB&quot; style=&quot;margin: 0px; padding: 0px; color: rgb(0, 0, 0); font-size: 11pt; font-style: normal; font-weight: 400; letter-spacing: normal; text-align: left; text-indent: 0px; text-transform: none; word-spacing: 0px; background-color: rgb(255, 255, 255); font-family: &amp;quot;calibri light&amp;quot;, &amp;quot;calibri light_embeddedfont&amp;quot;, &amp;quot;calibri light_msfontservice&amp;quot;, sans-serif; line-height: 19.425px;&quot;&gt;&lt;span class=&quot;NormalTextRun  BCX9 SCXW108028720&quot; style=&quot;margin: 0px ; padding: 0px ; background-color: inherit&quot;&gt;M&lt;/span&gt;&lt;/span&gt;&lt;span class=&quot;TextRun  BCX9 SCXW108028720&quot; lang=&quot;EN-GB&quot; style=&quot;margin: 0px; padding: 0px; color: rgb(0, 0, 0); font-size: 11pt; font-style: normal; font-weight: 400; letter-spacing: normal; text-align: left; text-indent: 0px; text-transform: none; word-spacing: 0px; background-color: rgb(255, 255, 255); font-family: &amp;quot;calibri light&amp;quot;, &amp;quot;calibri light_embeddedfont&amp;quot;, &amp;quot;calibri light_msfontservice&amp;quot;, sans-serif; line-height: 19.425px;&quot;&gt;&lt;span class=&quot;NormalTextRun  BCX9 SCXW108028720&quot; style=&quot;margin: 0px ; padding: 0px ; background-color: inherit&quot;&gt;enu&lt;/span&gt;&lt;/span&gt;&#xa;&#xa;" style="text;html=1;strokeColor=none;fillColor=none;align=center;verticalAlign=middle;whiteSpace=wrap;rounded=0;" vertex="1" parent="CwuzTmD7EpdxKROHSarw-56">
          <mxGeometry x="50" y="10" width="75" height="20" as="geometry" />
        </mxCell>
        <mxCell id="CwuzTmD7EpdxKROHSarw-30" value="Price $" style="text;html=1;strokeColor=none;fillColor=none;align=center;verticalAlign=middle;whiteSpace=wrap;rounded=0;fontSize=11;" vertex="1" parent="CwuzTmD7EpdxKROHSarw-56">
          <mxGeometry x="12.5" y="120" width="40" height="20" as="geometry" />
        </mxCell>
        <mxCell id="CwuzTmD7EpdxKROHSarw-43" value="Price $" style="text;html=1;strokeColor=none;fillColor=none;align=center;verticalAlign=middle;whiteSpace=wrap;rounded=0;fontSize=11;" vertex="1" parent="CwuzTmD7EpdxKROHSarw-56">
          <mxGeometry x="12.5" y="230" width="40" height="20" as="geometry" />
        </mxCell>
        <mxCell id="CwuzTmD7EpdxKROHSarw-44" value="&lt;h1 style=&quot;font-size: 11px;&quot;&gt;Heading&lt;/h1&gt;&lt;p style=&quot;font-size: 11px;&quot;&gt;Lorem ipsum dolor sit amet, consectetur adipisicing elit, sed do eiusmod tempor incididunt ut labore et dolore magna aliqua.&lt;/p&gt;" style="text;html=1;strokeColor=none;fillColor=none;spacing=5;spacingTop=-20;whiteSpace=wrap;overflow=hidden;rounded=0;fontSize=11;" vertex="1" parent="CwuzTmD7EpdxKROHSarw-56">
          <mxGeometry x="12.5" y="150" width="150" height="75" as="geometry" />
        </mxCell>
        <mxCell id="CwuzTmD7EpdxKROHSarw-61" value="" style="ellipse;whiteSpace=wrap;html=1;fontSize=11;" vertex="1" parent="CwuzTmD7EpdxKROHSarw-56">
          <mxGeometry x="170" y="20" width="20" height="20" as="geometry" />
        </mxCell>
        <mxCell id="CwuzTmD7EpdxKROHSarw-159" value="" style="group" vertex="1" connectable="0" parent="1">
          <mxGeometry x="680" y="20" width="190" height="270" as="geometry" />
        </mxCell>
        <mxCell id="CwuzTmD7EpdxKROHSarw-24" value="" style="rounded=0;whiteSpace=wrap;html=1;" vertex="1" parent="CwuzTmD7EpdxKROHSarw-159">
          <mxGeometry width="190" height="270" as="geometry" />
        </mxCell>
        <mxCell id="CwuzTmD7EpdxKROHSarw-25" value="" style="rounded=0;whiteSpace=wrap;html=1;" vertex="1" parent="CwuzTmD7EpdxKROHSarw-159">
          <mxGeometry x="170" width="20" height="270" as="geometry" />
        </mxCell>
        <mxCell id="CwuzTmD7EpdxKROHSarw-26" value="" style="triangle;whiteSpace=wrap;html=1;rotation=90;" vertex="1" parent="CwuzTmD7EpdxKROHSarw-159">
          <mxGeometry x="170" y="250" width="20" height="20" as="geometry" />
        </mxCell>
        <mxCell id="CwuzTmD7EpdxKROHSarw-27" value="" style="triangle;whiteSpace=wrap;html=1;rotation=-90;" vertex="1" parent="CwuzTmD7EpdxKROHSarw-159">
          <mxGeometry x="170" width="20" height="20" as="geometry" />
        </mxCell>
        <mxCell id="CwuzTmD7EpdxKROHSarw-42" value="&#xa;&#xa;&lt;span class=&quot;TextRun  BCX9 SCXW184529479&quot; lang=&quot;EN-GB&quot; style=&quot;margin: 0px; padding: 0px; color: rgb(0, 0, 0); font-size: 11pt; font-style: normal; font-weight: 400; letter-spacing: normal; text-align: left; text-indent: 0px; text-transform: none; word-spacing: 0px; background-color: rgb(255, 255, 255); font-family: &amp;quot;calibri light&amp;quot;, &amp;quot;calibri light_embeddedfont&amp;quot;, &amp;quot;calibri light_msfontservice&amp;quot;, sans-serif; line-height: 19.425px;&quot;&gt;&lt;span class=&quot;NormalTextRun  BCX9 SCXW184529479&quot; style=&quot;margin: 0px ; padding: 0px ; background-color: inherit&quot;&gt;Drinks&lt;span&gt;&amp;nbsp;&lt;/span&gt;&lt;/span&gt;&lt;/span&gt;&lt;span class=&quot;TextRun  BCX9 SCXW184529479&quot; lang=&quot;EN-GB&quot; style=&quot;margin: 0px; padding: 0px; color: rgb(0, 0, 0); font-size: 11pt; font-style: normal; font-weight: 400; letter-spacing: normal; text-align: left; text-indent: 0px; text-transform: none; word-spacing: 0px; background-color: rgb(255, 255, 255); font-family: &amp;quot;calibri light&amp;quot;, &amp;quot;calibri light_embeddedfont&amp;quot;, &amp;quot;calibri light_msfontservice&amp;quot;, sans-serif; line-height: 19.425px;&quot;&gt;&lt;span class=&quot;NormalTextRun  BCX9 SCXW184529479&quot; style=&quot;margin: 0px ; padding: 0px ; background-color: inherit&quot;&gt;M&lt;/span&gt;&lt;/span&gt;&lt;span class=&quot;TextRun  BCX9 SCXW184529479&quot; lang=&quot;EN-GB&quot; style=&quot;margin: 0px; padding: 0px; color: rgb(0, 0, 0); font-size: 11pt; font-style: normal; font-weight: 400; letter-spacing: normal; text-align: left; text-indent: 0px; text-transform: none; word-spacing: 0px; background-color: rgb(255, 255, 255); font-family: &amp;quot;calibri light&amp;quot;, &amp;quot;calibri light_embeddedfont&amp;quot;, &amp;quot;calibri light_msfontservice&amp;quot;, sans-serif; line-height: 19.425px;&quot;&gt;&lt;span class=&quot;NormalTextRun  BCX9 SCXW184529479&quot; style=&quot;margin: 0px ; padding: 0px ; background-color: inherit&quot;&gt;enu&lt;/span&gt;&lt;/span&gt;&#xa;&#xa;" style="text;html=1;strokeColor=none;fillColor=none;align=center;verticalAlign=middle;whiteSpace=wrap;rounded=0;" vertex="1" parent="CwuzTmD7EpdxKROHSarw-159">
          <mxGeometry x="50" y="10" width="75" height="20" as="geometry" />
        </mxCell>
        <mxCell id="CwuzTmD7EpdxKROHSarw-62" value="" style="ellipse;whiteSpace=wrap;html=1;fontSize=11;" vertex="1" parent="CwuzTmD7EpdxKROHSarw-159">
          <mxGeometry x="170" y="20" width="20" height="20" as="geometry" />
        </mxCell>
        <mxCell id="CwuzTmD7EpdxKROHSarw-66" value="Group 1" style="text;html=1;strokeColor=none;fillColor=none;align=center;verticalAlign=middle;whiteSpace=wrap;rounded=0;fontSize=11;" vertex="1" parent="CwuzTmD7EpdxKROHSarw-159">
          <mxGeometry x="17.5" y="30" width="50" height="25" as="geometry" />
        </mxCell>
        <mxCell id="CwuzTmD7EpdxKROHSarw-94" value="Drink 2" style="text;html=1;strokeColor=none;fillColor=none;align=center;verticalAlign=middle;whiteSpace=wrap;rounded=0;fontSize=11;fontStyle=0" vertex="1" parent="CwuzTmD7EpdxKROHSarw-159">
          <mxGeometry x="30" y="79.25" width="40" height="21.5" as="geometry" />
        </mxCell>
        <mxCell id="CwuzTmD7EpdxKROHSarw-149" value="Price $" style="text;html=1;strokeColor=none;fillColor=none;align=center;verticalAlign=middle;whiteSpace=wrap;rounded=0;fontSize=11;" vertex="1" parent="CwuzTmD7EpdxKROHSarw-159">
          <mxGeometry x="110" y="99" width="40" height="25.5" as="geometry" />
        </mxCell>
        <mxCell id="CwuzTmD7EpdxKROHSarw-96" value="Price $" style="text;html=1;strokeColor=none;fillColor=none;align=center;verticalAlign=middle;whiteSpace=wrap;rounded=0;fontSize=11;" vertex="1" parent="CwuzTmD7EpdxKROHSarw-159">
          <mxGeometry x="110" y="74.5" width="40" height="25.5" as="geometry" />
        </mxCell>
        <mxCell id="CwuzTmD7EpdxKROHSarw-88" value="Drink 1" style="text;html=1;strokeColor=none;fillColor=none;align=center;verticalAlign=middle;whiteSpace=wrap;rounded=0;fontSize=11;fontStyle=0" vertex="1" parent="CwuzTmD7EpdxKROHSarw-159">
          <mxGeometry x="30" y="55" width="40" height="21.5" as="geometry" />
        </mxCell>
        <mxCell id="CwuzTmD7EpdxKROHSarw-90" value="Price $" style="text;html=1;strokeColor=none;fillColor=none;align=center;verticalAlign=middle;whiteSpace=wrap;rounded=0;fontSize=11;" vertex="1" parent="CwuzTmD7EpdxKROHSarw-159">
          <mxGeometry x="110" y="53" width="40" height="25.5" as="geometry" />
        </mxCell>
        <mxCell id="CwuzTmD7EpdxKROHSarw-99" value="Drink 3" style="text;html=1;strokeColor=none;fillColor=none;align=center;verticalAlign=middle;whiteSpace=wrap;rounded=0;fontSize=11;fontStyle=0" vertex="1" parent="CwuzTmD7EpdxKROHSarw-159">
          <mxGeometry x="30" y="100" width="40" height="21.5" as="geometry" />
        </mxCell>
        <mxCell id="CwuzTmD7EpdxKROHSarw-150" value="Group 2" style="text;html=1;strokeColor=none;fillColor=none;align=center;verticalAlign=middle;whiteSpace=wrap;rounded=0;fontSize=11;" vertex="1" parent="CwuzTmD7EpdxKROHSarw-159">
          <mxGeometry x="17.5" y="140" width="50" height="25" as="geometry" />
        </mxCell>
        <mxCell id="CwuzTmD7EpdxKROHSarw-151" value="Drink 1" style="text;html=1;strokeColor=none;fillColor=none;align=center;verticalAlign=middle;whiteSpace=wrap;rounded=0;fontSize=11;fontStyle=0" vertex="1" parent="CwuzTmD7EpdxKROHSarw-159">
          <mxGeometry x="30" y="165" width="40" height="21.5" as="geometry" />
        </mxCell>
        <mxCell id="CwuzTmD7EpdxKROHSarw-152" value="Drink 2" style="text;html=1;strokeColor=none;fillColor=none;align=center;verticalAlign=middle;whiteSpace=wrap;rounded=0;fontSize=11;fontStyle=0" vertex="1" parent="CwuzTmD7EpdxKROHSarw-159">
          <mxGeometry x="30" y="189.25" width="40" height="21.5" as="geometry" />
        </mxCell>
        <mxCell id="CwuzTmD7EpdxKROHSarw-153" value="Drink 3" style="text;html=1;strokeColor=none;fillColor=none;align=center;verticalAlign=middle;whiteSpace=wrap;rounded=0;fontSize=11;fontStyle=0" vertex="1" parent="CwuzTmD7EpdxKROHSarw-159">
          <mxGeometry x="30" y="210" width="40" height="21.5" as="geometry" />
        </mxCell>
        <mxCell id="CwuzTmD7EpdxKROHSarw-154" value="Price $" style="text;html=1;strokeColor=none;fillColor=none;align=center;verticalAlign=middle;whiteSpace=wrap;rounded=0;fontSize=11;" vertex="1" parent="CwuzTmD7EpdxKROHSarw-159">
          <mxGeometry x="110" y="209" width="40" height="25.5" as="geometry" />
        </mxCell>
        <mxCell id="CwuzTmD7EpdxKROHSarw-155" value="Price $" style="text;html=1;strokeColor=none;fillColor=none;align=center;verticalAlign=middle;whiteSpace=wrap;rounded=0;fontSize=11;" vertex="1" parent="CwuzTmD7EpdxKROHSarw-159">
          <mxGeometry x="110" y="184.5" width="40" height="25.5" as="geometry" />
        </mxCell>
        <mxCell id="CwuzTmD7EpdxKROHSarw-156" value="Price $" style="text;html=1;strokeColor=none;fillColor=none;align=center;verticalAlign=middle;whiteSpace=wrap;rounded=0;fontSize=11;" vertex="1" parent="CwuzTmD7EpdxKROHSarw-159">
          <mxGeometry x="110" y="163" width="40" height="25.5" as="geometry" />
        </mxCell>
        <mxCell id="CwuzTmD7EpdxKROHSarw-160" value="" style="group" vertex="1" connectable="0" parent="1">
          <mxGeometry x="672.5" y="360" width="190" height="270" as="geometry" />
        </mxCell>
        <mxCell id="CwuzTmD7EpdxKROHSarw-110" value="" style="rounded=0;whiteSpace=wrap;html=1;fontSize=11;" vertex="1" parent="CwuzTmD7EpdxKROHSarw-160">
          <mxGeometry width="190" height="270" as="geometry" />
        </mxCell>
        <mxCell id="CwuzTmD7EpdxKROHSarw-111" value="&#xa;&#xa;&lt;span class=&quot;TextRun SCXW146730771 BCX9&quot; lang=&quot;EN-GB&quot; style=&quot;margin: 0px; padding: 0px; color: rgb(0, 0, 0); font-size: 11pt; font-style: normal; font-weight: 400; letter-spacing: normal; text-align: left; text-indent: 0px; text-transform: none; word-spacing: 0px; background-color: rgb(255, 255, 255); font-family: &amp;quot;calibri light&amp;quot;, &amp;quot;calibri light_embeddedfont&amp;quot;, &amp;quot;calibri light_msfontservice&amp;quot;, sans-serif; line-height: 19.425px;&quot;&gt;&lt;span class=&quot;NormalTextRun SCXW146730771 BCX9&quot; style=&quot;margin: 0px ; padding: 0px ; background-color: inherit&quot;&gt;Add/Edit Reservation Page&lt;/span&gt;&lt;/span&gt;&lt;span class=&quot;EOP SCXW146730771 BCX9&quot; style=&quot;margin: 0px; padding: 0px; color: rgb(0, 0, 0); font-size: 11pt; font-style: normal; font-weight: 400; letter-spacing: normal; text-align: left; text-indent: 0px; text-transform: none; word-spacing: 0px; background-color: rgb(255, 255, 255); line-height: 19.425px; font-family: &amp;quot;calibri light&amp;quot;, &amp;quot;calibri light_embeddedfont&amp;quot;, &amp;quot;calibri light_msfontservice&amp;quot;, sans-serif;&quot;&gt;&amp;nbsp;&lt;/span&gt;&#xa;&#xa;" style="text;html=1;strokeColor=none;fillColor=none;align=center;verticalAlign=middle;whiteSpace=wrap;rounded=0;" vertex="1" parent="CwuzTmD7EpdxKROHSarw-160">
          <mxGeometry x="17.5" y="10" width="160" height="20" as="geometry" />
        </mxCell>
        <mxCell id="CwuzTmD7EpdxKROHSarw-138" value="&#xa;&#xa;&lt;span class=&quot;TextRun SCXW162592454 BCX9&quot; lang=&quot;EN-GB&quot; style=&quot;margin: 0px; padding: 0px; color: rgb(0, 0, 0); font-size: 12px; font-style: normal; font-weight: 400; letter-spacing: normal; text-align: left; text-indent: 0px; text-transform: none; word-spacing: 0px; background-color: rgb(255, 255, 255); font-family: &amp;quot;calibri light&amp;quot;, &amp;quot;calibri light_embeddedfont&amp;quot;, &amp;quot;calibri light_msfontservice&amp;quot;, sans-serif; line-height: 19.425px;&quot;&gt;&lt;span class=&quot;NormalTextRun SCXW162592454 BCX9&quot; style=&quot;margin: 0px; padding: 0px; background-color: inherit; font-size: 12px;&quot;&gt;Date&lt;/span&gt;&lt;/span&gt;&lt;span class=&quot;EOP SCXW162592454 BCX9&quot; style=&quot;margin: 0px; padding: 0px; color: rgb(0, 0, 0); font-size: 12px; font-style: normal; font-weight: 400; letter-spacing: normal; text-align: left; text-indent: 0px; text-transform: none; word-spacing: 0px; background-color: rgb(255, 255, 255); line-height: 19.425px; font-family: &amp;quot;calibri light&amp;quot;, &amp;quot;calibri light_embeddedfont&amp;quot;, &amp;quot;calibri light_msfontservice&amp;quot;, sans-serif;&quot;&gt;&amp;nbsp;&lt;/span&gt;&#xa;&#xa;" style="text;html=1;strokeColor=none;fillColor=none;align=center;verticalAlign=middle;whiteSpace=wrap;rounded=0;fontSize=12;" vertex="1" parent="CwuzTmD7EpdxKROHSarw-160">
          <mxGeometry x="17.5" y="50" width="40" height="20" as="geometry" />
        </mxCell>
        <mxCell id="CwuzTmD7EpdxKROHSarw-139" value="" style="rounded=0;whiteSpace=wrap;html=1;fontSize=10;" vertex="1" parent="CwuzTmD7EpdxKROHSarw-160">
          <mxGeometry x="57.5" y="55" width="90" height="15" as="geometry" />
        </mxCell>
        <mxCell id="CwuzTmD7EpdxKROHSarw-140" value="Time" style="text;html=1;strokeColor=none;fillColor=none;align=center;verticalAlign=middle;whiteSpace=wrap;rounded=0;fontSize=10;" vertex="1" parent="CwuzTmD7EpdxKROHSarw-160">
          <mxGeometry x="17.5" y="80" width="40" height="20" as="geometry" />
        </mxCell>
        <mxCell id="CwuzTmD7EpdxKROHSarw-141" value="" style="rounded=0;whiteSpace=wrap;html=1;fontSize=10;" vertex="1" parent="CwuzTmD7EpdxKROHSarw-160">
          <mxGeometry x="57.5" y="85" width="90" height="15" as="geometry" />
        </mxCell>
        <mxCell id="CwuzTmD7EpdxKROHSarw-142" value="&#xa;&#xa;&lt;span class=&quot;TextRun SCXW98303790 BCX9&quot; lang=&quot;EN-GB&quot; style=&quot;margin: 0px; padding: 0px; color: rgb(0, 0, 0); font-size: 10px; font-style: normal; font-weight: 400; letter-spacing: normal; text-align: left; text-indent: 0px; text-transform: none; word-spacing: 0px; background-color: rgb(255, 255, 255); font-family: &amp;quot;calibri light&amp;quot;, &amp;quot;calibri light_embeddedfont&amp;quot;, &amp;quot;calibri light_msfontservice&amp;quot;, sans-serif; line-height: 19.425px;&quot;&gt;&lt;span class=&quot;NormalTextRun SCXW98303790 BCX9&quot; style=&quot;margin: 0px; padding: 0px; background-color: inherit; font-size: 10px;&quot;&gt;Number of people&lt;/span&gt;&lt;/span&gt;&lt;span class=&quot;EOP SCXW98303790 BCX9&quot; style=&quot;margin: 0px; padding: 0px; color: rgb(0, 0, 0); font-size: 10px; font-style: normal; font-weight: 400; letter-spacing: normal; text-align: left; text-indent: 0px; text-transform: none; word-spacing: 0px; background-color: rgb(255, 255, 255); line-height: 19.425px; font-family: &amp;quot;calibri light&amp;quot;, &amp;quot;calibri light_embeddedfont&amp;quot;, &amp;quot;calibri light_msfontservice&amp;quot;, sans-serif;&quot;&gt;&amp;nbsp;&lt;/span&gt;&#xa;&#xa;" style="text;html=1;strokeColor=none;fillColor=none;align=center;verticalAlign=middle;whiteSpace=wrap;rounded=0;fontSize=10;" vertex="1" parent="CwuzTmD7EpdxKROHSarw-160">
          <mxGeometry x="17.5" y="103" width="80" height="30" as="geometry" />
        </mxCell>
        <mxCell id="CwuzTmD7EpdxKROHSarw-143" value="" style="rounded=0;whiteSpace=wrap;html=1;fontSize=10;" vertex="1" parent="CwuzTmD7EpdxKROHSarw-160">
          <mxGeometry x="117.5" y="115" width="30" height="15" as="geometry" />
        </mxCell>
        <mxCell id="CwuzTmD7EpdxKROHSarw-144" value="&#xa;&#xa;&lt;span class=&quot;TextRun SCXW143412360 BCX9&quot; lang=&quot;EN-GB&quot; style=&quot;margin: 0px; padding: 0px; color: rgb(0, 0, 0); font-size: 12px; font-style: normal; font-weight: 400; letter-spacing: normal; text-align: left; text-indent: 0px; text-transform: none; word-spacing: 0px; background-color: rgb(255, 255, 255); font-family: &amp;quot;calibri light&amp;quot;, &amp;quot;calibri light_embeddedfont&amp;quot;, &amp;quot;calibri light_msfontservice&amp;quot;, sans-serif; line-height: 19.425px;&quot;&gt;&lt;span class=&quot;NormalTextRun SCXW143412360 BCX9&quot; style=&quot;margin: 0px; padding: 0px; background-color: inherit; font-size: 12px;&quot;&gt;Name&lt;/span&gt;&lt;/span&gt;&lt;span class=&quot;EOP SCXW143412360 BCX9&quot; style=&quot;margin: 0px; padding: 0px; color: rgb(0, 0, 0); font-size: 12px; font-style: normal; font-weight: 400; letter-spacing: normal; text-align: left; text-indent: 0px; text-transform: none; word-spacing: 0px; background-color: rgb(255, 255, 255); line-height: 19.425px; font-family: &amp;quot;calibri light&amp;quot;, &amp;quot;calibri light_embeddedfont&amp;quot;, &amp;quot;calibri light_msfontservice&amp;quot;, sans-serif;&quot;&gt;&amp;nbsp;&lt;/span&gt;&#xa;&#xa;" style="text;html=1;strokeColor=none;fillColor=none;align=center;verticalAlign=middle;whiteSpace=wrap;rounded=0;fontSize=12;" vertex="1" parent="CwuzTmD7EpdxKROHSarw-160">
          <mxGeometry x="17.5" y="140" width="40" height="20" as="geometry" />
        </mxCell>
        <mxCell id="CwuzTmD7EpdxKROHSarw-145" value="" style="rounded=0;whiteSpace=wrap;html=1;fontSize=10;" vertex="1" parent="CwuzTmD7EpdxKROHSarw-160">
          <mxGeometry x="57.5" y="145" width="90" height="10" as="geometry" />
        </mxCell>
        <mxCell id="CwuzTmD7EpdxKROHSarw-146" value="" style="rounded=1;whiteSpace=wrap;html=1;fontSize=10;" vertex="1" parent="CwuzTmD7EpdxKROHSarw-160">
          <mxGeometry x="17.5" y="200" width="70" height="20" as="geometry" />
        </mxCell>
        <mxCell id="CwuzTmD7EpdxKROHSarw-147" value="" style="rounded=1;whiteSpace=wrap;html=1;fontSize=10;" vertex="1" parent="CwuzTmD7EpdxKROHSarw-160">
          <mxGeometry x="107.5" y="200" width="70" height="20" as="geometry" />
        </mxCell>
        <mxCell id="CwuzTmD7EpdxKROHSarw-161" value="" style="group" vertex="1" connectable="0" parent="1">
          <mxGeometry x="410" y="360" width="190" height="270" as="geometry" />
        </mxCell>
        <mxCell id="CwuzTmD7EpdxKROHSarw-58" value="" style="rounded=0;whiteSpace=wrap;html=1;fontSize=11;" vertex="1" parent="CwuzTmD7EpdxKROHSarw-161">
          <mxGeometry width="190" height="270" as="geometry" />
        </mxCell>
        <mxCell id="CwuzTmD7EpdxKROHSarw-64" value="&#xa;&#xa;&lt;span class=&quot;TextRun SCXW23630912 BCX9&quot; lang=&quot;EN-GB&quot; style=&quot;margin: 0px; padding: 0px; color: rgb(0, 0, 0); font-size: 11pt; font-style: normal; font-weight: 400; letter-spacing: normal; text-align: left; text-indent: 0px; text-transform: none; word-spacing: 0px; background-color: rgb(255, 255, 255); font-family: &amp;quot;calibri light&amp;quot;, &amp;quot;calibri light_embeddedfont&amp;quot;, &amp;quot;calibri light_msfontservice&amp;quot;, sans-serif; line-height: 19.425px;&quot;&gt;&lt;span class=&quot;NormalTextRun SCXW23630912 BCX9&quot; style=&quot;margin: 0px ; padding: 0px ; background-color: inherit&quot;&gt;Reservations&lt;/span&gt;&lt;/span&gt;&lt;span class=&quot;TextRun SCXW23630912 BCX9&quot; lang=&quot;EN-GB&quot; style=&quot;margin: 0px; padding: 0px; color: rgb(0, 0, 0); font-size: 11pt; font-style: normal; font-weight: 400; letter-spacing: normal; text-align: left; text-indent: 0px; text-transform: none; word-spacing: 0px; background-color: rgb(255, 255, 255); font-family: &amp;quot;calibri light&amp;quot;, &amp;quot;calibri light_embeddedfont&amp;quot;, &amp;quot;calibri light_msfontservice&amp;quot;, sans-serif; line-height: 19.425px;&quot;&gt;&lt;span class=&quot;NormalTextRun SCXW23630912 BCX9&quot; style=&quot;margin: 0px ; padding: 0px ; background-color: inherit&quot;&gt;&lt;span&gt;&amp;nbsp;&lt;/span&gt;List&lt;/span&gt;&lt;/span&gt;&lt;span class=&quot;TextRun SCXW23630912 BCX9&quot; lang=&quot;EN-GB&quot; style=&quot;margin: 0px; padding: 0px; color: rgb(0, 0, 0); font-size: 11pt; font-style: normal; font-weight: 400; letter-spacing: normal; text-align: left; text-indent: 0px; text-transform: none; word-spacing: 0px; background-color: rgb(255, 255, 255); font-family: &amp;quot;calibri light&amp;quot;, &amp;quot;calibri light_embeddedfont&amp;quot;, &amp;quot;calibri light_msfontservice&amp;quot;, sans-serif; line-height: 19.425px;&quot;&gt;&lt;span class=&quot;NormalTextRun SCXW23630912 BCX9&quot; style=&quot;margin: 0px ; padding: 0px ; background-color: inherit&quot;&gt;&lt;span&gt;&amp;nbsp;&lt;/span&gt;Page&lt;/span&gt;&lt;/span&gt;&lt;span class=&quot;TextRun SCXW23630912 BCX9&quot; lang=&quot;EN-GB&quot; style=&quot;margin: 0px; padding: 0px; color: rgb(0, 0, 0); font-size: 11pt; font-style: normal; font-weight: 400; letter-spacing: normal; text-align: left; text-indent: 0px; text-transform: none; word-spacing: 0px; background-color: rgb(255, 255, 255); font-family: arial, arial_embeddedfont, arial_msfontservice, sans-serif; line-height: 17.2667px;&quot;&gt;&lt;span class=&quot;NormalTextRun SCXW23630912 BCX9&quot; style=&quot;margin: 0px ; padding: 0px ; background-color: inherit&quot;&gt;&amp;nbsp;&lt;/span&gt;&lt;/span&gt;&lt;span class=&quot;EOP SCXW23630912 BCX9&quot; style=&quot;margin: 0px; padding: 0px; color: rgb(0, 0, 0); font-size: 11pt; font-style: normal; font-weight: 400; letter-spacing: normal; text-align: left; text-indent: 0px; text-transform: none; word-spacing: 0px; background-color: rgb(255, 255, 255); line-height: 17.2667px; font-family: arial, arial_embeddedfont, arial_msfontservice, sans-serif;&quot;&gt;&amp;nbsp;&lt;/span&gt;&#xa;&#xa;" style="text;html=1;strokeColor=none;fillColor=none;align=center;verticalAlign=middle;whiteSpace=wrap;rounded=0;" vertex="1" parent="CwuzTmD7EpdxKROHSarw-161">
          <mxGeometry x="57.5" y="10" width="75" height="20" as="geometry" />
        </mxCell>
        <mxCell id="CwuzTmD7EpdxKROHSarw-112" value="Table" style="shape=table;html=1;whiteSpace=wrap;startSize=30;container=1;collapsible=0;childLayout=tableLayout;fixedRows=1;rowLines=0;fontStyle=1;align=center;fontSize=11;" vertex="1" parent="CwuzTmD7EpdxKROHSarw-161">
          <mxGeometry x="20" y="40" width="150" height="180" as="geometry" />
        </mxCell>
        <mxCell id="CwuzTmD7EpdxKROHSarw-113" value="" style="shape=partialRectangle;html=1;whiteSpace=wrap;collapsible=0;dropTarget=0;pointerEvents=0;fillColor=none;top=0;left=0;bottom=1;right=0;points=[[0,0.5],[1,0.5]];portConstraint=eastwest;" vertex="1" parent="CwuzTmD7EpdxKROHSarw-112">
          <mxGeometry y="30" width="150" height="30" as="geometry" />
        </mxCell>
        <mxCell id="CwuzTmD7EpdxKROHSarw-114" value="1" style="shape=partialRectangle;html=1;whiteSpace=wrap;connectable=0;fillColor=none;top=0;left=0;bottom=0;right=0;overflow=hidden;" vertex="1" parent="CwuzTmD7EpdxKROHSarw-113">
          <mxGeometry width="33" height="30" as="geometry" />
        </mxCell>
        <mxCell id="CwuzTmD7EpdxKROHSarw-115" value="Value 1" style="shape=partialRectangle;html=1;whiteSpace=wrap;connectable=0;fillColor=none;top=0;left=0;bottom=0;right=0;align=left;spacingLeft=6;overflow=hidden;" vertex="1" parent="CwuzTmD7EpdxKROHSarw-113">
          <mxGeometry x="33" width="117" height="30" as="geometry" />
        </mxCell>
        <mxCell id="CwuzTmD7EpdxKROHSarw-116" value="" style="shape=partialRectangle;html=1;whiteSpace=wrap;collapsible=0;dropTarget=0;pointerEvents=0;fillColor=none;top=0;left=0;bottom=0;right=0;points=[[0,0.5],[1,0.5]];portConstraint=eastwest;" vertex="1" parent="CwuzTmD7EpdxKROHSarw-112">
          <mxGeometry y="60" width="150" height="30" as="geometry" />
        </mxCell>
        <mxCell id="CwuzTmD7EpdxKROHSarw-117" value="2" style="shape=partialRectangle;html=1;whiteSpace=wrap;connectable=0;fillColor=none;top=0;left=0;bottom=0;right=0;overflow=hidden;" vertex="1" parent="CwuzTmD7EpdxKROHSarw-116">
          <mxGeometry width="33" height="30" as="geometry" />
        </mxCell>
        <mxCell id="CwuzTmD7EpdxKROHSarw-118" value="Value 2" style="shape=partialRectangle;html=1;whiteSpace=wrap;connectable=0;fillColor=none;top=0;left=0;bottom=0;right=0;align=left;spacingLeft=6;overflow=hidden;" vertex="1" parent="CwuzTmD7EpdxKROHSarw-116">
          <mxGeometry x="33" width="117" height="30" as="geometry" />
        </mxCell>
        <mxCell id="CwuzTmD7EpdxKROHSarw-119" value="" style="shape=partialRectangle;html=1;whiteSpace=wrap;collapsible=0;dropTarget=0;pointerEvents=0;fillColor=none;top=0;left=0;bottom=0;right=0;points=[[0,0.5],[1,0.5]];portConstraint=eastwest;" vertex="1" parent="CwuzTmD7EpdxKROHSarw-112">
          <mxGeometry y="90" width="150" height="30" as="geometry" />
        </mxCell>
        <mxCell id="CwuzTmD7EpdxKROHSarw-120" value="3" style="shape=partialRectangle;html=1;whiteSpace=wrap;connectable=0;fillColor=none;top=0;left=0;bottom=0;right=0;overflow=hidden;" vertex="1" parent="CwuzTmD7EpdxKROHSarw-119">
          <mxGeometry width="33" height="30" as="geometry" />
        </mxCell>
        <mxCell id="CwuzTmD7EpdxKROHSarw-121" value="Value 3" style="shape=partialRectangle;html=1;whiteSpace=wrap;connectable=0;fillColor=none;top=0;left=0;bottom=0;right=0;align=left;spacingLeft=6;overflow=hidden;" vertex="1" parent="CwuzTmD7EpdxKROHSarw-119">
          <mxGeometry x="33" width="117" height="30" as="geometry" />
        </mxCell>
        <mxCell id="CwuzTmD7EpdxKROHSarw-122" value="" style="shape=partialRectangle;html=1;whiteSpace=wrap;collapsible=0;dropTarget=0;pointerEvents=0;fillColor=none;top=0;left=0;bottom=0;right=0;points=[[0,0.5],[1,0.5]];portConstraint=eastwest;" vertex="1" parent="CwuzTmD7EpdxKROHSarw-112">
          <mxGeometry y="120" width="150" height="30" as="geometry" />
        </mxCell>
        <mxCell id="CwuzTmD7EpdxKROHSarw-123" value="4" style="shape=partialRectangle;html=1;whiteSpace=wrap;connectable=0;fillColor=none;top=0;left=0;bottom=0;right=0;overflow=hidden;" vertex="1" parent="CwuzTmD7EpdxKROHSarw-122">
          <mxGeometry width="33" height="30" as="geometry" />
        </mxCell>
        <mxCell id="CwuzTmD7EpdxKROHSarw-124" value="Value 4" style="shape=partialRectangle;html=1;whiteSpace=wrap;connectable=0;fillColor=none;top=0;left=0;bottom=0;right=0;align=left;spacingLeft=6;overflow=hidden;" vertex="1" parent="CwuzTmD7EpdxKROHSarw-122">
          <mxGeometry x="33" width="117" height="30" as="geometry" />
        </mxCell>
        <mxCell id="CwuzTmD7EpdxKROHSarw-134" value="" style="shape=partialRectangle;html=1;whiteSpace=wrap;collapsible=0;dropTarget=0;pointerEvents=0;fillColor=none;top=0;left=0;bottom=0;right=0;points=[[0,0.5],[1,0.5]];portConstraint=eastwest;" vertex="1" parent="CwuzTmD7EpdxKROHSarw-112">
          <mxGeometry y="150" width="150" height="30" as="geometry" />
        </mxCell>
        <mxCell id="CwuzTmD7EpdxKROHSarw-135" value="4" style="shape=partialRectangle;html=1;whiteSpace=wrap;connectable=0;fillColor=none;top=0;left=0;bottom=0;right=0;overflow=hidden;" vertex="1" parent="CwuzTmD7EpdxKROHSarw-134">
          <mxGeometry width="33" height="30" as="geometry" />
        </mxCell>
        <mxCell id="CwuzTmD7EpdxKROHSarw-136" value="Value 4" style="shape=partialRectangle;html=1;whiteSpace=wrap;connectable=0;fillColor=none;top=0;left=0;bottom=0;right=0;align=left;spacingLeft=6;overflow=hidden;" vertex="1" parent="CwuzTmD7EpdxKROHSarw-134">
          <mxGeometry x="33" width="117" height="30" as="geometry" />
        </mxCell>
        <mxCell id="CwuzTmD7EpdxKROHSarw-133" value="" style="rounded=1;whiteSpace=wrap;html=1;fontSize=11;" vertex="1" parent="CwuzTmD7EpdxKROHSarw-161">
          <mxGeometry x="35" y="235" width="120" height="22.5" as="geometry" />
        </mxCell>
        <mxCell id="CwuzTmD7EpdxKROHSarw-137" value="&#xa;&#xa;&lt;span class=&quot;TextRun  BCX9 SCXW218648493&quot; lang=&quot;EN-GB&quot; style=&quot;margin: 0px; padding: 0px; color: rgb(0, 0, 0); font-size: 11pt; font-style: normal; font-weight: 400; letter-spacing: normal; text-align: left; text-indent: 0px; text-transform: none; word-spacing: 0px; background-color: rgb(255, 255, 255); font-family: &amp;quot;calibri light&amp;quot;, &amp;quot;calibri light_embeddedfont&amp;quot;, &amp;quot;calibri light_msfontservice&amp;quot;, sans-serif; line-height: 19.425px;&quot;&gt;&lt;span class=&quot;NormalTextRun  BCX9 SCXW218648493&quot; style=&quot;margin: 0px ; padding: 0px ; background-color: inherit&quot;&gt;Add&lt;span&gt;&amp;nbsp;&lt;/span&gt;&lt;/span&gt;&lt;/span&gt;&lt;span class=&quot;TextRun  BCX9 SCXW218648493&quot; lang=&quot;EN-GB&quot; style=&quot;margin: 0px; padding: 0px; color: rgb(0, 0, 0); font-size: 11pt; font-style: normal; font-weight: 400; letter-spacing: normal; text-align: left; text-indent: 0px; text-transform: none; word-spacing: 0px; background-color: rgb(255, 255, 255); font-family: &amp;quot;calibri light&amp;quot;, &amp;quot;calibri light_embeddedfont&amp;quot;, &amp;quot;calibri light_msfontservice&amp;quot;, sans-serif; line-height: 19.425px;&quot;&gt;&lt;span class=&quot;NormalTextRun  BCX9 SCXW218648493&quot; style=&quot;margin: 0px ; padding: 0px ; background-color: inherit&quot;&gt;reservation&lt;/span&gt;&lt;/span&gt;&#xa;&#xa;" style="text;html=1;strokeColor=none;fillColor=none;align=center;verticalAlign=middle;whiteSpace=wrap;rounded=0;fontSize=11;" vertex="1" parent="CwuzTmD7EpdxKROHSarw-161">
          <mxGeometry x="75" y="236.25" width="40" height="20" as="geometry" />
        </mxCell>
        <mxCell id="CwuzTmD7EpdxKROHSarw-162" value="" style="group" vertex="1" connectable="0" parent="1">
          <mxGeometry x="110" y="360" width="190" height="270" as="geometry" />
        </mxCell>
        <mxCell id="CwuzTmD7EpdxKROHSarw-57" value="" style="rounded=0;whiteSpace=wrap;html=1;fontSize=11;" vertex="1" parent="CwuzTmD7EpdxKROHSarw-162">
          <mxGeometry width="190" height="270" as="geometry" />
        </mxCell>
        <mxCell id="CwuzTmD7EpdxKROHSarw-63" value="&#xa;&#xa;&lt;span class=&quot;TextRun SCXW248500174 BCX9&quot; lang=&quot;EN-GB&quot; style=&quot;margin: 0px; padding: 0px; color: rgb(0, 0, 0); font-size: 11pt; font-style: normal; font-weight: 400; letter-spacing: normal; text-align: left; text-indent: 0px; text-transform: none; word-spacing: 0px; background-color: rgb(255, 255, 255); font-family: &amp;quot;calibri light&amp;quot;, &amp;quot;calibri light_embeddedfont&amp;quot;, &amp;quot;calibri light_msfontservice&amp;quot;, sans-serif; line-height: 19.425px;&quot;&gt;&lt;span class=&quot;NormalTextRun SCXW248500174 BCX9&quot; style=&quot;margin: 0px ; padding: 0px ; background-color: inherit&quot;&gt;Contact&lt;/span&gt;&lt;/span&gt;&lt;span class=&quot;TextRun SCXW248500174 BCX9&quot; lang=&quot;EN-GB&quot; style=&quot;margin: 0px; padding: 0px; color: rgb(0, 0, 0); font-size: 11pt; font-style: normal; font-weight: 400; letter-spacing: normal; text-align: left; text-indent: 0px; text-transform: none; word-spacing: 0px; background-color: rgb(255, 255, 255); font-family: &amp;quot;calibri light&amp;quot;, &amp;quot;calibri light_embeddedfont&amp;quot;, &amp;quot;calibri light_msfontservice&amp;quot;, sans-serif; line-height: 19.425px;&quot;&gt;&lt;span class=&quot;NormalTextRun SCXW248500174 BCX9&quot; style=&quot;margin: 0px ; padding: 0px ; background-color: inherit&quot;&gt;&lt;span&gt;&amp;nbsp;&lt;/span&gt;Page&lt;/span&gt;&lt;/span&gt;&lt;span class=&quot;EOP SCXW248500174 BCX9&quot; style=&quot;margin: 0px; padding: 0px; color: rgb(0, 0, 0); font-size: 11pt; font-style: normal; font-weight: 400; letter-spacing: normal; text-align: left; text-indent: 0px; text-transform: none; word-spacing: 0px; background-color: rgb(255, 255, 255); line-height: 19.425px; font-family: &amp;quot;calibri light&amp;quot;, &amp;quot;calibri light_embeddedfont&amp;quot;, &amp;quot;calibri light_msfontservice&amp;quot;, sans-serif;&quot;&gt;&amp;nbsp;&lt;/span&gt;&#xa;&#xa;" style="text;html=1;strokeColor=none;fillColor=none;align=center;verticalAlign=middle;whiteSpace=wrap;rounded=0;" vertex="1" parent="CwuzTmD7EpdxKROHSarw-162">
          <mxGeometry x="57.5" y="20" width="75" height="20" as="geometry" />
        </mxCell>
        <mxCell id="CwuzTmD7EpdxKROHSarw-103" value="" style="rounded=0;whiteSpace=wrap;html=1;fontSize=11;" vertex="1" parent="CwuzTmD7EpdxKROHSarw-162">
          <mxGeometry x="30" y="50" width="120" height="50" as="geometry" />
        </mxCell>
        <mxCell id="CwuzTmD7EpdxKROHSarw-104" value="&#xa;&#xa;&lt;span class=&quot;TextRun  BCX9 SCXW233112860&quot; lang=&quot;EN-GB&quot; style=&quot;margin: 0px; padding: 0px; color: rgb(0, 0, 0); font-size: 11pt; font-style: normal; font-weight: 400; letter-spacing: normal; text-align: left; text-indent: 0px; text-transform: none; word-spacing: 0px; background-color: rgb(255, 255, 255); font-family: &amp;quot;calibri light&amp;quot;, &amp;quot;calibri light_embeddedfont&amp;quot;, &amp;quot;calibri light_msfontservice&amp;quot;, sans-serif; line-height: 19.425px;&quot;&gt;&lt;span class=&quot;NormalTextRun  BCX9 SCXW233112860&quot; style=&quot;margin: 0px ; padding: 0px ; background-color: inherit&quot;&gt;Image&lt;/span&gt;&lt;/span&gt;&lt;span class=&quot;TextRun  BCX9 SCXW233112860&quot; lang=&quot;EN-GB&quot; style=&quot;margin: 0px; padding: 0px; color: rgb(0, 0, 0); font-size: 11pt; font-style: normal; font-weight: 400; letter-spacing: normal; text-align: left; text-indent: 0px; text-transform: none; word-spacing: 0px; background-color: rgb(255, 255, 255); font-family: &amp;quot;calibri light&amp;quot;, &amp;quot;calibri light_embeddedfont&amp;quot;, &amp;quot;calibri light_msfontservice&amp;quot;, sans-serif; line-height: 19.425px;&quot;&gt;&lt;span class=&quot;NormalTextRun  BCX9 SCXW233112860&quot; style=&quot;margin: 0px ; padding: 0px ; background-color: inherit&quot;&gt;s&lt;/span&gt;&lt;/span&gt;&lt;span class=&quot;TextRun  BCX9 SCXW233112860&quot; lang=&quot;EN-GB&quot; style=&quot;margin: 0px; padding: 0px; color: rgb(0, 0, 0); font-size: 11pt; font-style: normal; font-weight: 400; letter-spacing: normal; text-align: left; text-indent: 0px; text-transform: none; word-spacing: 0px; background-color: rgb(255, 255, 255); font-family: &amp;quot;calibri light&amp;quot;, &amp;quot;calibri light_embeddedfont&amp;quot;, &amp;quot;calibri light_msfontservice&amp;quot;, sans-serif; line-height: 19.425px;&quot;&gt;&lt;span class=&quot;NormalTextRun  BCX9 SCXW233112860&quot; style=&quot;margin: 0px ; padding: 0px ; background-color: inherit&quot;&gt;&lt;span&gt;&amp;nbsp;&lt;/span&gt;of the&lt;span&gt;&amp;nbsp;&lt;/span&gt;&lt;/span&gt;&lt;/span&gt;&lt;span class=&quot;TextRun  BCX9 SCXW233112860&quot; lang=&quot;EN-GB&quot; style=&quot;margin: 0px; padding: 0px; color: rgb(0, 0, 0); font-size: 11pt; font-style: normal; font-weight: 400; letter-spacing: normal; text-align: left; text-indent: 0px; text-transform: none; word-spacing: 0px; background-color: rgb(255, 255, 255); font-family: &amp;quot;calibri light&amp;quot;, &amp;quot;calibri light_embeddedfont&amp;quot;, &amp;quot;calibri light_msfontservice&amp;quot;, sans-serif; line-height: 19.425px;&quot;&gt;&lt;span class=&quot;NormalTextRun  BCX9 SCXW233112860&quot; style=&quot;margin: 0px ; padding: 0px ; background-color: inherit&quot;&gt;pub&lt;/span&gt;&lt;/span&gt;&#xa;&#xa;" style="text;html=1;strokeColor=none;fillColor=none;align=center;verticalAlign=middle;whiteSpace=wrap;rounded=0;fontSize=11;" vertex="1" parent="CwuzTmD7EpdxKROHSarw-162">
          <mxGeometry x="70" y="65" width="40" height="20" as="geometry" />
        </mxCell>
        <mxCell id="CwuzTmD7EpdxKROHSarw-105" value="&#xa;&#xa;&lt;span class=&quot;TextRun SCXW86261949 BCX9&quot; lang=&quot;EN-GB&quot; style=&quot;margin: 0px; padding: 0px; color: rgb(0, 0, 0); font-size: 11pt; font-style: normal; font-weight: 400; letter-spacing: normal; text-align: left; text-indent: 0px; text-transform: none; word-spacing: 0px; background-color: rgb(255, 255, 255); font-family: &amp;quot;calibri light&amp;quot;, &amp;quot;calibri light_embeddedfont&amp;quot;, &amp;quot;calibri light_msfontservice&amp;quot;, sans-serif; line-height: 19.425px;&quot;&gt;&lt;span class=&quot;NormalTextRun SCXW86261949 BCX9&quot; style=&quot;margin: 0px ; padding: 0px ; background-color: inherit&quot;&gt;Phone number&lt;/span&gt;&lt;/span&gt;&lt;span class=&quot;EOP SCXW86261949 BCX9&quot; style=&quot;margin: 0px; padding: 0px; color: rgb(0, 0, 0); font-size: 11pt; font-style: normal; font-weight: 400; letter-spacing: normal; text-align: left; text-indent: 0px; text-transform: none; word-spacing: 0px; background-color: rgb(255, 255, 255); line-height: 19.425px; font-family: &amp;quot;calibri light&amp;quot;, &amp;quot;calibri light_embeddedfont&amp;quot;, &amp;quot;calibri light_msfontservice&amp;quot;, sans-serif;&quot;&gt;&amp;nbsp;&lt;/span&gt;&#xa;&#xa;" style="text;html=1;strokeColor=none;fillColor=none;align=center;verticalAlign=middle;whiteSpace=wrap;rounded=0;fontSize=11;" vertex="1" parent="CwuzTmD7EpdxKROHSarw-162">
          <mxGeometry x="32.5" y="120" width="100" height="20" as="geometry" />
        </mxCell>
        <mxCell id="CwuzTmD7EpdxKROHSarw-106" value="&#xa;&#xa;&lt;span class=&quot;TextRun SCXW187255988 BCX9&quot; lang=&quot;EN-GB&quot; style=&quot;margin: 0px; padding: 0px; color: rgb(0, 0, 0); font-size: 11pt; font-style: normal; font-weight: 400; letter-spacing: normal; text-align: left; text-indent: 0px; text-transform: none; word-spacing: 0px; background-color: rgb(255, 255, 255); font-family: &amp;quot;calibri light&amp;quot;, &amp;quot;calibri light_embeddedfont&amp;quot;, &amp;quot;calibri light_msfontservice&amp;quot;, sans-serif; line-height: 19.425px;&quot;&gt;&lt;span class=&quot;NormalTextRun SCXW187255988 BCX9&quot; style=&quot;margin: 0px ; padding: 0px ; background-color: inherit&quot;&gt;Address&lt;/span&gt;&lt;/span&gt;&lt;span class=&quot;EOP SCXW187255988 BCX9&quot; style=&quot;margin: 0px; padding: 0px; color: rgb(0, 0, 0); font-size: 11pt; font-style: normal; font-weight: 400; letter-spacing: normal; text-align: left; text-indent: 0px; text-transform: none; word-spacing: 0px; background-color: rgb(255, 255, 255); line-height: 19.425px; font-family: &amp;quot;calibri light&amp;quot;, &amp;quot;calibri light_embeddedfont&amp;quot;, &amp;quot;calibri light_msfontservice&amp;quot;, sans-serif;&quot;&gt;&amp;nbsp;&lt;/span&gt;&#xa;&#xa;" style="text;html=1;strokeColor=none;fillColor=none;align=center;verticalAlign=middle;whiteSpace=wrap;rounded=0;fontSize=11;" vertex="1" parent="CwuzTmD7EpdxKROHSarw-162">
          <mxGeometry x="32.5" y="140" width="60" height="20" as="geometry" />
        </mxCell>
        <mxCell id="CwuzTmD7EpdxKROHSarw-107" value="&#xa;&#xa;&lt;span class=&quot;TextRun SCXW182406064 BCX9&quot; lang=&quot;EN-GB&quot; style=&quot;margin: 0px; padding: 0px; color: rgb(0, 0, 0); font-size: 11pt; font-style: normal; font-weight: 400; letter-spacing: normal; text-align: left; text-indent: 0px; text-transform: none; word-spacing: 0px; background-color: rgb(255, 255, 255); font-family: &amp;quot;calibri light&amp;quot;, &amp;quot;calibri light_embeddedfont&amp;quot;, &amp;quot;calibri light_msfontservice&amp;quot;, sans-serif; line-height: 19.425px;&quot;&gt;&lt;span class=&quot;NormalTextRun SCXW182406064 BCX9&quot; style=&quot;margin: 0px ; padding: 0px ; background-color: inherit&quot;&gt;Email&lt;/span&gt;&lt;/span&gt;&lt;span class=&quot;EOP SCXW182406064 BCX9&quot; style=&quot;margin: 0px; padding: 0px; color: rgb(0, 0, 0); font-size: 11pt; font-style: normal; font-weight: 400; letter-spacing: normal; text-align: left; text-indent: 0px; text-transform: none; word-spacing: 0px; background-color: rgb(255, 255, 255); line-height: 19.425px; font-family: &amp;quot;calibri light&amp;quot;, &amp;quot;calibri light_embeddedfont&amp;quot;, &amp;quot;calibri light_msfontservice&amp;quot;, sans-serif;&quot;&gt;&amp;nbsp;&lt;/span&gt;&#xa;&#xa;" style="text;html=1;strokeColor=none;fillColor=none;align=center;verticalAlign=middle;whiteSpace=wrap;rounded=0;fontSize=11;" vertex="1" parent="CwuzTmD7EpdxKROHSarw-162">
          <mxGeometry x="32.5" y="160" width="40" height="20" as="geometry" />
        </mxCell>
        <mxCell id="CwuzTmD7EpdxKROHSarw-108" value="" style="rounded=0;whiteSpace=wrap;html=1;fontSize=11;" vertex="1" parent="CwuzTmD7EpdxKROHSarw-162">
          <mxGeometry x="30" y="190" width="120" height="70" as="geometry" />
        </mxCell>
        <mxCell id="CwuzTmD7EpdxKROHSarw-109" value="&#xa;&#xa;&lt;span class=&quot;TextRun  BCX9 SCXW78721298&quot; lang=&quot;EN-GB&quot; style=&quot;animation: 0s ease 0s 1 normal none running none; background: none 0% 0% / auto repeat scroll padding-box border-box rgba(0, 0, 0, 0); border: 0px none rgb(0, 0, 0); border-radius: 0px; border-collapse: separate; inset: auto; box-shadow: none; box-sizing: content-box; caption-side: top; clear: none; clip: auto; color: rgb(0, 0, 0); content: normal; cursor: text; direction: ltr; display: inline; empty-cells: show; float: none; font-family: wordvisi_msfontservice, &amp;quot;calibri light&amp;quot;, &amp;quot;calibri light_embeddedfont&amp;quot;, &amp;quot;calibri light_msfontservice&amp;quot;, sans-serif; font-size: 14.6667px; font-style: normal; font-weight: 400; height: auto; letter-spacing: normal; line-height: 19.425px; list-style: outside none circle; margin: 0px; max-height: none; max-width: none; min-height: 0px; min-width: 0px; opacity: 1; outline: rgb(0, 0, 0) none 0px; overflow-wrap: break-word; overflow: visible; padding: 0px; position: static; resize: none; speak: normal; table-layout: auto; text-align: left; text-decoration: none; text-indent: 0px; text-shadow: none; text-overflow: clip; text-transform: none; transition: all 0s ease 0s; unicode-bidi: normal; vertical-align: baseline; visibility: visible; width: auto; word-break: normal; word-spacing: 0px; z-index: auto; zoom: 1; appearance: none; backface-visibility: visible; border-spacing: 0px; perspective: none; perspective-origin: 0px 0px; transform: none; transform-origin: 0px 0px; transform-style: flat;&quot;&gt;&lt;span class=&quot;NormalTextRun  BCX9 SCXW78721298&quot; style=&quot;background-color: inherit&quot;&gt;Map&lt;/span&gt;&lt;/span&gt;&#xa;&#xa;" style="text;html=1;strokeColor=none;fillColor=none;align=center;verticalAlign=middle;whiteSpace=wrap;rounded=0;fontSize=11;" vertex="1" parent="CwuzTmD7EpdxKROHSarw-162">
          <mxGeometry x="70" y="215" width="40" height="20" as="geometry" />
        </mxCell>
      </root>
    </mxGraphModel>
  </diagram>
</mxfile>
